<svg xmlns="http://www.w3.org/2000/svg" width="284" height="299" viewBox="0 0 284 299">
    <g fill="none" fill-rule="evenodd" transform="translate(-14 -1)">
        <rect width="312" height="300" fill="#D8D8D8" fill-opacity="0" fill-rule="nonzero" rx="2"/>
        <circle cx="142" cy="142" r="142" fill="#9DA7A9" opacity=".3" transform="translate(14 8)"/>
        <g transform="translate(140 5)">
            <rect width="60" height="41" fill="#FFF" rx="1"/>
            <rect width="60" height="41" fill="#FD9800" opacity=".3" rx="1"/>
        </g>
        <g transform="rotate(11 -163.406 904.488)">
            <rect width="68" height="31" fill="#FFF" rx="1"/>
            <rect width="68" height="31" fill="#FD9800" opacity=".3" rx="1"/>
        </g>
        <path fill="#FFF" d="M155 87h54a1 1 0 0 1 1 1v59a1 1 0 0 1-1 1h-54a1 1 0 0 1-1-1V88a1 1 0 0 1 1-1z"/>
        <path fill="#FD9800" d="M155 87h54a1 1 0 0 1 1 1v59a1 1 0 0 1-1 1h-54a1 1 0 0 1-1-1V88a1 1 0 0 1 1-1z" opacity=".3"/>
        <path stroke="#FD9800" stroke-dasharray="2,4" stroke-linecap="round" stroke-linejoin="round" d="M142 2h53v41h-46.335M167.478 44.883l65.769 12.785-5.725 29.449-65.769-12.785 5.725-29.449zM151.873 125c-1.164-26.667-1.164-40 0-40H205v17.374M206 130v16l-25-.892"/>
        <g>
            <path fill="#FFF" d="M75.912 272.953l4.51-4.92v-1.516l38.938-32.853 19.562-28.053 35.266 73.816-1.175 1.188 4.099 5.502 4.367-2.734v4.083c-.105 4.084.292 6.962 1.19 8.633.899 1.671 18.702-6.425 53.41-24.289-7.381-3.161-13.086-4.42-17.113-3.778-4.028.643-9.064 2.564-15.109 5.763-2.095-1.997-3.683-2.66-4.765-1.985-1.082.675-2.482 1.784-4.2 3.328l-3.949-5.106-3.643 1.778-31.3-88.48 1.486-1.01-4.537-37.077c11.94.087 21.673-1.259 29.2-4.038 7.525-2.78 14.762-7.7 21.708-14.762 3.313-4.185 4.97-7.31 4.97-9.376 0-3.1.066-6.881-1.033-7.911a199.437 199.437 0 0 1-2.622-2.513c-.877 7.732-7.575 13.82-20.096 18.267-12.521 4.447-24 5.804-34.437 4.074.39-18.052-.094-29.055-1.456-33.008-1.361-3.954-5.045-5.057-11.05-3.311l-21.491 6.794c-2.936.205-5.193 1.052-6.772 2.541-2.368 2.234-5.458 11.062-3.09 16.24 2.369 5.18 7.472 21.727 8.95 32.784.984 7.37 1.289 16.978.912 28.821l-9.862 44.775-35.67 35.312-3.44-2.758-5.383 6.004 13.625 9.775z"/>
            <path fill="#52A4C5" d="M81.327 273.746c-1.25.882-1.7 1.265-3.948 0-2.248-1.266-8.147-5.976-9.627-6.974-1.48-.997-.892-2.72 0-3.387.892-.667 1.972-2.229 2.855-2.91.884-.681 2.705-.798 3.481 0 .776.798 2.06.684 4.328-1.695 2.268-2.38 28.125-28.973 29.826-30.182 1.701-1.21 3.035-4.78 4.009-8.673.974-3.892 6.956-30.51 7.809-32.06.853-1.548 1.603-5.393 4.53-4.5 2.926.892 16.714 4.5 20.216 4.5 3.502 0 7.018.05 8.05 3.153 1.033 3.102-12.542 19.357-13.958 22.406-1.416 3.048-14.357 21.47-16.598 23.466-2.24 1.996-31.888 26.485-33.994 27.808-2.107 1.322-4.109 3.067-4.109 4.291 0 1.224-1.619 3.874-2.87 4.757z" opacity=".2"/>
            <path fill="#52A4C5" d="M157.968 189.692c4.714-2.86 5 1.037 6.032 4.14.688 2.067 10.045 27.862 28.069 77.381.526 1.915 1.542 2.872 3.046 2.872 2.256 0 2.2-.718 3.45.66 1.252 1.38 1.963 3.6 0 4.691-1.961 1.09-11.958 6.935-13.31 8.018-1.35 1.083-2.874 1.1-3.533 0-.659-1.099-2.25-3.935-.634-5.34 1.618-1.404.658-2.948-1.278-5.158-1.936-2.21-29.852-61.759-31.428-63.836-1.576-2.077-3.557-4.706-1.576-7.062 1.98-2.357 6.448-13.505 11.162-16.366z" opacity=".4"/>
            <path stroke="#281F57" stroke-linecap="round" stroke-linejoin="round" d="M119.09 99.734c-7.448-.831-11.763 2.797-12.948 10.884-1.778 12.13 13.386 28.084 34.448 32.735 21.062 4.65 50.052-.64 61.789-14.668 7.824-9.352 8.714-16.866 2.67-22.54-.779 7.576-5.245 13.028-13.4 16.355-12.231 4.99-27.588 9.595-43.115 6.185-10.351-2.273-17.298-8.296-20.84-18.067M115 130c7.405-1.91 13.739-6.244 19-13"/>
            <path stroke="#281F57" stroke-linecap="round" stroke-linejoin="round" d="M107.526 119.545c7.8 19.036 10.784 39.19 8.95 60.463 21.328 5.828 35.17 6.553 41.524 2.174l-4.508-36.784M117.246 180.474L106.51 224.71 71.24 259.43M80.051 266.463l39.416-32.752L146 195M67.726 257L81 267.497c-2.951 3.669-4.795 5.503-5.532 5.503-.737 0-5.226-3.245-13.468-9.735L67.726 257zM139 206l35 73M156 183.364L187 271M173 280.258L190.945 270l4.055 5.129L176.683 286zM63.983 271c-3.487-.035-5.983.94-7.487 2.924-1.504 1.983-1.874 3.924-1.11 5.821L69.167 299H90c-.709-4.614-4.532-6.921-11.468-6.921-2.159-5.84-4.17-9.098-6.032-9.77 1.362-1.284 2.043-2.71 2.043-4.278 0-1.57-2.546-2.514-7.638-2.834.176 3.032-1.03 4.548-3.617 4.548-2.587 0-3.663-1.772-3.229-5.316M83 292.337c-4.27-.772-7.937-.218-11 1.663"/>
            <path stroke="#281F57" stroke-linecap="round" stroke-linejoin="round" d="M181.656 284.924c-.875 2.877-.875 5.761 0 8.651.875 2.89 2.552 4.699 5.03 5.425L232 269.873c-4.614-1.873-9.365-2.341-14.252-1.405-7.33 1.405-10.927 4.611-13.026 5.719-3.718-2.185-4.472-4.312-8.887 0-2.943 2.874-2.386 5.058 1.673 6.55 0 4.708-3.607 7.063-10.821 7.063"/>
        </g>
        <g>
            <path fill="#281F57" d="M153.002 152.101c0-1.861-2.373-4.717-3.666-4.717-1.292 0-13.827-2.467-19.11-4.59-5.283-2.122-13.365-7.808-15.13-8.965-1.764-1.157-.088-3.222 1.685-3.222 1.772 0 11.567-6.683 12.506-7.935.939-1.252 2.712-1.723 4.387 0 1.676 1.723 6.965 5.901 10.57 6.918 3.606 1.017 5.092-.962 5.092-3.599 0-2.636.712-23.48-.798-26.672s-2.886-5.272-5.926-5.272-3.41-.58-7.898 2.346c-4.488 2.926-8.94 4.887-12.821 4.887-3.881 0-12.075-.555-14.417 4.237-2.342 4.792-4.528 8.641.945 21.26 5.473 12.617 7.426 33.203 7.426 41.154v11.189c0 1.653-.625 2.786 2.71 3.534 3.336.749 15.77 4.24 26.412 4.24 10.64 0 11.565-3.972 11.565-5.873 0-1.901-3.532-27.058-3.532-28.92z" opacity=".2"/>
            <g fill-rule="nonzero">
                <path fill="#FFF" d="M109.971 72.31a8.415 8.415 0 0 1-9.268-5.432 8.39 8.39 0 0 1-.364-4.44l-.16-.152c-4.216-2.985-7.086-6.313-8.612-9.984-2.288-5.505-.102-15.977 4.16-21.17 4.264-5.191 9.866-8.077 12.034-8.866 1.445-.526 3.949-.941 7.511-1.245 1.972-3.625 5.074-6.292 9.306-8.002 6.35-2.565 13.994 2.62 16.033 9.127 2.039 6.507 1.457 9.664.094 12.055-.908 1.594-1.982 2.69-3.223 3.29 4.286 12.5 6.85 20.172 7.695 23.013 1.268 4.263 4.034 13.315.86 17.212-2.115 2.598-6.329 4.38-12.639 5.348l4.594 12.622c-2.519 2.23-4.878 3.678-7.079 4.341-2.2.663-5.725.917-10.576.761L109.97 72.31z"/>
                <path stroke="#262254" stroke-linecap="round" stroke-linejoin="round" d="M113.365 42.093c.792 4.627.035 9.167-2.233 13.834a8.353 8.353 0 0 0-5.438.102c-4.36 1.587-6.605 6.414-5.015 10.783 1.59 4.368 6.413 6.622 10.772 5.036a8.35 8.35 0 0 0 3.919-2.953M120.514 80.469c5.156 3.102 18.939 4.207 25.046-2.194 5.32-5.575-1.486-20.512-8.077-40.888M136.19 73.155c-4.982 1.814-10.494-.763-12.31-5.755"/>
                <path stroke="#262254" stroke-linecap="round" stroke-linejoin="round" d="M132.456 52.047l5.617 7.355c-.354 1.353-1.248 2.438-2.682 3.252M100.24 62.404c-9.556-6.997-11.915-14.062-7.5-26.282 2.807-7.765 16.977-19.217 27.45-13.601"/>
                <path stroke="#262254" stroke-linecap="round" stroke-linejoin="round" d="M115.234 20.91c8.934-13.8 21.94-9.112 25.79 2.296 6.384 18.917-19.495 19.808-31.743 18.445M110.066 72.427l10.28 28.247M133.43 83.116l4.524 12.429M117.398 100.468c8.628 1.43 15.28.845 22.012-6.188"/>
            </g>
            <g fill="#262254" fill-rule="nonzero" transform="rotate(-20 218.553 -323.835)">
                <ellipse cx="1.214" cy="1.2" rx="1.214" ry="1.2"/>
                <ellipse cx="12.75" cy="2.4" rx="1.214" ry="1.2"/>
            </g>
        </g>
    </g>
</svg>
