<svg xmlns="http://www.w3.org/2000/svg" xmlns:xlink="http://www.w3.org/1999/xlink" width="24" height="24" viewBox="0 0 24 24">
    <defs>
        <path id="a" d="M15.38 11.675a4.986 4.986 0 0 0 1.286-5.49A5 5 0 0 0 12.005 3a5 5 0 0 0-4.66 3.185 4.986 4.986 0 0 0 1.285 5.49A8.986 8.986 0 0 0 3 20.002a1 1 0 0 0 2 0c0-3.86 3.134-6.99 7-6.99s7 3.13 7 6.99a1 1 0 0 0 2 0 8.986 8.986 0 0 0-5.62-8.327zM9 8.021a2.998 2.998 0 0 1 3-2.995c1.657 0 3 1.34 3 2.995a2.998 2.998 0 0 1-3 2.995c-1.657 0-3-1.34-3-2.995z"/>
    </defs>
    <g fill="none" fill-rule="evenodd">
        <mask id="b" fill="#0c9abe">
            <use xlink:href="#a"/>
        </mask>
        <use fill="#0c9abe" fill-rule="nonzero" xlink:href="#a"/>
        <g fill="#0c9abe" mask="url(#b)">
            <path d="M0 0h24v24H0z"/>
        </g>
    </g>
</svg>
